<mxfile host="65bd71144e">
    <diagram id="234NKnhTCfFOBeIfzYKT" name="Page-1">
        <mxGraphModel dx="2089" dy="1544" grid="1" gridSize="10" guides="1" tooltips="1" connect="1" arrows="1" fold="1" page="1" pageScale="1" pageWidth="827" pageHeight="1169" math="0" shadow="0">
            <root>
                <mxCell id="0"/>
                <mxCell id="1" parent="0"/>
                <mxCell id="2" value="&lt;b&gt;Procedimientos&lt;br&gt;&lt;br&gt;&lt;/b&gt;id int pk auto_i&lt;br&gt;nombre varchar(140)&lt;br&gt;caracteristicas text default null&lt;br&gt;cirugia_id int fk" style="whiteSpace=wrap;html=1;aspect=fixed;" parent="1" vertex="1">
                    <mxGeometry x="410" y="-60" width="120" height="120" as="geometry"/>
                </mxCell>
                <mxCell id="5" value="&lt;b&gt;Cirugias&lt;/b&gt;&lt;br&gt;&lt;br&gt;id int pk auto_i&lt;br&gt;nombre varchar(140)&lt;br&gt;caracteristicas text default null&amp;nbsp;" style="whiteSpace=wrap;html=1;aspect=fixed;" parent="1" vertex="1">
                    <mxGeometry x="410" y="-250" width="130" height="130" as="geometry"/>
                </mxCell>
                <mxCell id="6" value="&lt;b&gt;Acta_procedimientos&lt;/b&gt;&lt;br&gt;&lt;br&gt;id int pk auto_i&lt;br&gt;nombre varchar(240) df null&lt;br&gt;fecha_nacimiento date df null&lt;br&gt;edad int df null&lt;br&gt;procedimiento_id int fk df 1 //partos&lt;br&gt;cirugia_pediatrica varchar(240) df null&lt;br&gt;servicio enum('quirofano1','quirofano2','toco1','toco2')&lt;br&gt;fecha date default current_timestamp&lt;br&gt;hora time default current_timestamp&lt;br&gt;enfermera_quirurjica varchar(140) df null&lt;br&gt;usuario_id int fk&lt;br&gt;cirujano varchar(140) df null&lt;br&gt;anestesiologo varchar(140) df null&lt;br&gt;enfermera_circulante varchar(140) df null&lt;br&gt;activo boolean&lt;br&gt;turno varchar(140) df null" style="whiteSpace=wrap;html=1;aspect=fixed;" parent="1" vertex="1">
                    <mxGeometry x="60" y="-50" width="300" height="300" as="geometry"/>
                </mxCell>
                <mxCell id="8" value="&lt;b&gt;Ropa_qui&lt;br&gt;&lt;br&gt;&lt;/b&gt;id int pk auto_i&lt;br&gt;tipo_bulto varchar(140)" style="whiteSpace=wrap;html=1;aspect=fixed;" parent="1" vertex="1">
                    <mxGeometry x="110" y="430" width="150" height="150" as="geometry"/>
                </mxCell>
                <mxCell id="9" value="&lt;b&gt;Tipos_instrumentos&lt;br&gt;&lt;br&gt;&lt;/b&gt;id int pk auto_i&lt;br&gt;tipo varchar(140)&lt;br&gt;" style="whiteSpace=wrap;html=1;aspect=fixed;" parent="1" vertex="1">
                    <mxGeometry x="-500" y="275" width="140" height="140" as="geometry"/>
                </mxCell>
                <mxCell id="10" value="&lt;b&gt;Usuarios&lt;/b&gt;&lt;b&gt;&lt;br&gt;&lt;br&gt;&lt;/b&gt;id int pk auto_i&lt;br&gt;nombre&amp;nbsp; varchar(160)&lt;br&gt;apellidos varchar(170)&lt;br&gt;rol varchar (100)&lt;br&gt;contacto varchar (160)&lt;br&gt;usuario varchar(160) unique not null&lt;br&gt;contra varchar(160) not null&lt;br&gt;&amp;nbsp;&lt;br&gt;&lt;b&gt;&lt;br&gt;&lt;/b&gt;" style="whiteSpace=wrap;html=1;aspect=fixed;" parent="1" vertex="1">
                    <mxGeometry x="410" y="200" width="200" height="200" as="geometry"/>
                </mxCell>
                <mxCell id="11" value="&lt;b&gt;Acta_ceye&lt;/b&gt;&lt;br&gt;&lt;br&gt;id int pk ai&lt;br&gt;autoclave varchar(100)&lt;br&gt;no_carga int&lt;br&gt;no_paquete int&lt;br&gt;fecha date default current_timestamp&lt;br&gt;hora time default current_timestamp&lt;br&gt;turno varchar(140)&lt;br&gt;responsable varchar(160)&lt;br&gt;usuario_id int fk" style="whiteSpace=wrap;html=1;aspect=fixed;" parent="1" vertex="1">
                    <mxGeometry x="340" y="415" width="235" height="235" as="geometry"/>
                </mxCell>
                <mxCell id="13" value="&lt;b&gt;Acta_instrumentos&lt;br&gt;&lt;br&gt;&lt;/b&gt;id int pk auto_i&lt;br&gt;codigo varchar(100)&lt;br&gt;instrumento_id int fk&lt;br&gt;acta_procedimiento_id int fk&lt;br&gt;extra varchar(140) default null" style="whiteSpace=wrap;html=1;aspect=fixed;" parent="1" vertex="1">
                    <mxGeometry x="-110" y="260" width="170" height="170" as="geometry"/>
                </mxCell>
                <mxCell id="14" value="&lt;b&gt;Acta_ropa_qui&lt;/b&gt;&lt;br&gt;&lt;br&gt;id int pk auto_i&lt;br&gt;cantidad int&lt;br&gt;ropa_qui_id int fk&lt;br&gt;acta_procedimiento_id int fk&lt;br&gt;extra varchar(140) default null" style="whiteSpace=wrap;html=1;aspect=fixed;" parent="1" vertex="1">
                    <mxGeometry x="130" y="275" width="135" height="135" as="geometry"/>
                </mxCell>
                <mxCell id="15" value="" style="endArrow=classic;html=1;entryX=0.993;entryY=0.886;entryDx=0;entryDy=0;entryPerimeter=0;" parent="1" target="2" edge="1">
                    <mxGeometry width="50" height="50" relative="1" as="geometry">
                        <mxPoint x="540" y="-190" as="sourcePoint"/>
                        <mxPoint x="590" y="50" as="targetPoint"/>
                        <Array as="points">
                            <mxPoint x="600" y="-190"/>
                            <mxPoint x="600" y="46"/>
                        </Array>
                    </mxGeometry>
                </mxCell>
                <mxCell id="17" value="" style="endArrow=classic;html=1;exitX=-0.021;exitY=0.414;exitDx=0;exitDy=0;exitPerimeter=0;entryX=0.999;entryY=0.369;entryDx=0;entryDy=0;entryPerimeter=0;" parent="1" source="2" target="6" edge="1">
                    <mxGeometry width="50" height="50" relative="1" as="geometry">
                        <mxPoint x="280" y="100" as="sourcePoint"/>
                        <mxPoint x="320" y="70" as="targetPoint"/>
                        <Array as="points">
                            <mxPoint x="380" y="-10"/>
                            <mxPoint x="380" y="60"/>
                        </Array>
                    </mxGeometry>
                </mxCell>
                <mxCell id="18" value="" style="endArrow=classic;html=1;exitX=0.005;exitY=0.277;exitDx=0;exitDy=0;exitPerimeter=0;entryX=1;entryY=0.671;entryDx=0;entryDy=0;entryPerimeter=0;" parent="1" target="6" edge="1" source="10">
                    <mxGeometry width="50" height="50" relative="1" as="geometry">
                        <mxPoint x="410" y="260" as="sourcePoint"/>
                        <mxPoint x="320" y="170" as="targetPoint"/>
                        <Array as="points">
                            <mxPoint x="380" y="255"/>
                            <mxPoint x="380" y="151"/>
                        </Array>
                    </mxGeometry>
                </mxCell>
                <mxCell id="19" value="" style="endArrow=classic;html=1;exitX=0;exitY=0.166;exitDx=0;exitDy=0;exitPerimeter=0;entryX=1.015;entryY=0.671;entryDx=0;entryDy=0;entryPerimeter=0;" parent="1" source="6" target="13" edge="1">
                    <mxGeometry width="50" height="50" relative="1" as="geometry">
                        <mxPoint x="-80" y="140" as="sourcePoint"/>
                        <mxPoint x="-20" y="220" as="targetPoint"/>
                        <Array as="points">
                            <mxPoint x="20"/>
                            <mxPoint x="20" y="250"/>
                            <mxPoint x="80" y="250"/>
                            <mxPoint x="80" y="374"/>
                        </Array>
                    </mxGeometry>
                </mxCell>
                <mxCell id="20" value="" style="endArrow=classic;html=1;exitX=-0.003;exitY=0.167;exitDx=0;exitDy=0;exitPerimeter=0;entryX=0.001;entryY=0.624;entryDx=0;entryDy=0;entryPerimeter=0;" parent="1" source="6" target="14" edge="1">
                    <mxGeometry width="50" height="50" relative="1" as="geometry">
                        <mxPoint x="-60" y="140" as="sourcePoint"/>
                        <mxPoint x="-10" y="90" as="targetPoint"/>
                        <Array as="points">
                            <mxPoint x="10"/>
                            <mxPoint x="10" y="240"/>
                            <mxPoint x="90" y="240"/>
                            <mxPoint x="90" y="359"/>
                        </Array>
                    </mxGeometry>
                </mxCell>
                <mxCell id="21" value="" style="endArrow=classic;html=1;entryX=-0.002;entryY=0.599;entryDx=0;entryDy=0;entryPerimeter=0;exitX=0.996;exitY=0.436;exitDx=0;exitDy=0;exitPerimeter=0;" parent="1" source="30" target="13" edge="1">
                    <mxGeometry width="50" height="50" relative="1" as="geometry">
                        <mxPoint x="-150" y="200" as="sourcePoint"/>
                        <mxPoint x="40" y="400" as="targetPoint"/>
                        <Array as="points">
                            <mxPoint x="-130" y="302"/>
                            <mxPoint x="-130" y="362"/>
                            <mxPoint x="-120" y="362"/>
                        </Array>
                    </mxGeometry>
                </mxCell>
                <mxCell id="22" value="" style="endArrow=classic;html=1;exitX=0;exitY=0.5;exitDx=0;exitDy=0;entryX=0;entryY=0.5;entryDx=0;entryDy=0;" parent="1" source="8" target="14" edge="1">
                    <mxGeometry width="50" height="50" relative="1" as="geometry">
                        <mxPoint x="20" y="520" as="sourcePoint"/>
                        <mxPoint x="70" y="470" as="targetPoint"/>
                        <Array as="points">
                            <mxPoint x="100" y="505"/>
                            <mxPoint x="100" y="343"/>
                        </Array>
                    </mxGeometry>
                </mxCell>
                <mxCell id="23" value="ropa_qui: ropa quirÃºrgica" style="text;html=1;strokeColor=#006EAF;fillColor=#1ba1e2;align=center;verticalAlign=middle;whiteSpace=wrap;rounded=0;fontColor=#ffffff;" parent="1" vertex="1">
                    <mxGeometry x="-50" y="610" width="160" height="30" as="geometry"/>
                </mxCell>
                <mxCell id="24" value="" style="endArrow=classic;html=1;exitX=-0.004;exitY=0.28;exitDx=0;exitDy=0;exitPerimeter=0;entryX=-0.001;entryY=0.799;entryDx=0;entryDy=0;entryPerimeter=0;" edge="1" parent="1" source="10" target="11">
                    <mxGeometry width="50" height="50" relative="1" as="geometry">
                        <mxPoint x="410" y="250" as="sourcePoint"/>
                        <mxPoint x="300" y="380" as="targetPoint"/>
                        <Array as="points">
                            <mxPoint x="360" y="256"/>
                            <mxPoint x="360" y="360"/>
                            <mxPoint x="300" y="360"/>
                            <mxPoint x="300" y="603"/>
                        </Array>
                    </mxGeometry>
                </mxCell>
                <mxCell id="26" value="&lt;b&gt;Acta_instrumentos_ceye&lt;br&gt;&lt;br&gt;&lt;/b&gt;id int pk auto_i&lt;br&gt;codigo varchar(100)&lt;br&gt;instrumento_id int fk&lt;br&gt;acta_ceye_id int fk&lt;br&gt;extra varchar(140) default null&lt;br&gt;cantidad int" style="whiteSpace=wrap;html=1;aspect=fixed;" vertex="1" parent="1">
                    <mxGeometry x="360" y="690" width="170" height="170" as="geometry"/>
                </mxCell>
                <mxCell id="28" value="" style="endArrow=classic;html=1;entryX=0.007;entryY=0.541;entryDx=0;entryDy=0;entryPerimeter=0;exitX=0.993;exitY=0.438;exitDx=0;exitDy=0;exitPerimeter=0;" edge="1" parent="1" source="30" target="26">
                    <mxGeometry width="50" height="50" relative="1" as="geometry">
                        <mxPoint x="-270" y="410" as="sourcePoint"/>
                        <mxPoint x="320" y="770" as="targetPoint"/>
                        <Array as="points">
                            <mxPoint x="-120" y="301"/>
                            <mxPoint x="-120" y="430"/>
                            <mxPoint x="-120" y="782"/>
                        </Array>
                    </mxGeometry>
                </mxCell>
                <mxCell id="29" value="" style="endArrow=classic;html=1;exitX=-0.002;exitY=0.311;exitDx=0;exitDy=0;exitPerimeter=0;entryX=-0.013;entryY=0.629;entryDx=0;entryDy=0;entryPerimeter=0;" edge="1" parent="1" source="11" target="26">
                    <mxGeometry width="50" height="50" relative="1" as="geometry">
                        <mxPoint x="120" y="680" as="sourcePoint"/>
                        <mxPoint x="170" y="630" as="targetPoint"/>
                        <Array as="points">
                            <mxPoint x="310" y="488"/>
                            <mxPoint x="310" y="797"/>
                        </Array>
                    </mxGeometry>
                </mxCell>
                <mxCell id="30" value="&lt;b&gt;Instrumentos&lt;br&gt;&lt;br&gt;&lt;/b&gt;id int pk auto_i&lt;br&gt;nombre varchar(140)&lt;br&gt;tipo_instrumento_id int fk&lt;br&gt;&lt;b&gt;&lt;br&gt;&lt;/b&gt;" style="whiteSpace=wrap;html=1;aspect=fixed;" vertex="1" parent="1">
                    <mxGeometry x="-290" y="240" width="140" height="140" as="geometry"/>
                </mxCell>
                <mxCell id="32" value="" style="endArrow=classic;html=1;exitX=1.007;exitY=0.553;exitDx=0;exitDy=0;exitPerimeter=0;entryX=0;entryY=0.643;entryDx=0;entryDy=0;entryPerimeter=0;" edge="1" parent="1" source="9" target="30">
                    <mxGeometry width="50" height="50" relative="1" as="geometry">
                        <mxPoint x="-120" y="240" as="sourcePoint"/>
                        <mxPoint x="-70" y="190" as="targetPoint"/>
                        <Array as="points">
                            <mxPoint x="-330" y="352"/>
                            <mxPoint x="-330" y="330"/>
                        </Array>
                    </mxGeometry>
                </mxCell>
                <mxCell id="33" value="&lt;b&gt;Inventario&lt;br&gt;&lt;br&gt;&lt;/b&gt;id int pk auto_i&lt;br&gt;codigo varchar(100)&lt;br&gt;instrumento_id int fk&lt;br&gt;activo boolean&lt;br&gt;acta_instrumentos_ceye_id int fk&lt;br&gt;extra varchar(140) default null" style="whiteSpace=wrap;html=1;aspect=fixed;" vertex="1" parent="1">
                    <mxGeometry x="20" y="830" width="180" height="180" as="geometry"/>
                </mxCell>
                <mxCell id="34" value="" style="endArrow=classic;html=1;entryX=1.002;entryY=0.706;entryDx=0;entryDy=0;entryPerimeter=0;" edge="1" parent="1" target="33">
                    <mxGeometry width="50" height="50" relative="1" as="geometry">
                        <mxPoint x="360" y="760" as="sourcePoint"/>
                        <mxPoint x="300" y="900" as="targetPoint"/>
                        <Array as="points">
                            <mxPoint x="260" y="760"/>
                            <mxPoint x="260" y="957"/>
                        </Array>
                    </mxGeometry>
                </mxCell>
                <mxCell id="35" value="" style="endArrow=classic;html=1;exitX=-0.005;exitY=0.443;exitDx=0;exitDy=0;exitPerimeter=0;entryX=0.001;entryY=0.54;entryDx=0;entryDy=0;entryPerimeter=0;" edge="1" parent="1" source="30" target="33">
                    <mxGeometry width="50" height="50" relative="1" as="geometry">
                        <mxPoint x="-280" y="410" as="sourcePoint"/>
                        <mxPoint x="-150" y="790" as="targetPoint"/>
                        <Array as="points">
                            <mxPoint x="-320" y="302"/>
                            <mxPoint x="-320" y="560"/>
                            <mxPoint x="-320" y="927"/>
                        </Array>
                    </mxGeometry>
                </mxCell>
                <mxCell id="37" value="" style="endArrow=none;dashed=1;html=1;dashPattern=1 3;strokeWidth=2;exitX=1.007;exitY=0.113;exitDx=0;exitDy=0;exitPerimeter=0;entryX=0.009;entryY=0.945;entryDx=0;entryDy=0;entryPerimeter=0;" edge="1" parent="1" source="33" target="26">
                    <mxGeometry width="50" height="50" relative="1" as="geometry">
                        <mxPoint x="250" y="930" as="sourcePoint"/>
                        <mxPoint x="300" y="880" as="targetPoint"/>
                    </mxGeometry>
                </mxCell>
                <mxCell id="38" value="" style="endArrow=none;dashed=1;html=1;dashPattern=1 3;strokeWidth=2;" edge="1" parent="1">
                    <mxGeometry width="50" height="50" relative="1" as="geometry">
                        <mxPoint x="400" y="950" as="sourcePoint"/>
                        <mxPoint x="310" y="850" as="targetPoint"/>
                        <Array as="points">
                            <mxPoint x="310" y="950"/>
                        </Array>
                    </mxGeometry>
                </mxCell>
                <mxCell id="39" value="Al guardar en esta tabla un&lt;br&gt;trigger encargado de registrar en inventario con&lt;br&gt;el mismo codigo, mismo instrumento_id, marcando true en activo&lt;br&gt;y con el id de la tabla, sin embargo, repetir este mismo&lt;br&gt;registro las veces que lo indique cantidad" style="text;html=1;align=center;verticalAlign=middle;resizable=0;points=[];autosize=1;strokeColor=none;fillColor=none;" vertex="1" parent="1">
                    <mxGeometry x="225" y="950" width="360" height="80" as="geometry"/>
                </mxCell>
            </root>
        </mxGraphModel>
    </diagram>
</mxfile>